<?xml version="1.0" encoding="UTF-8"?>
<svg width="170px" height="69px" viewBox="0 0 170 69" version="1.1" xmlns="http://www.w3.org/2000/svg" xmlns:xlink="http://www.w3.org/1999/xlink">
    <!-- Generator: Sketch 50.2 (55047) - http://www.bohemiancoding.com/sketch -->
    <title>logo</title>
    <desc>Created with Sketch.</desc>
    <defs></defs>
    <g id="logo" stroke="none" stroke-width="1" fill="none" fill-rule="evenodd">
        <path d="M46.3967419,28.2772857 C46.2818349,28.3401429 46.1683465,28.3801429 46.0548581,28.4258571 L46.0548581,43.8144286 C40.7932535,46.8744286 35.5316488,49.9344286 30.2700442,52.993 C25.0084395,49.9344286 19.7454163,46.8744286 14.4838116,43.8144286 L14.4838116,28.353 C14.4228116,28.3244286 14.3618116,28.2972857 14.3008116,28.263 C9.53855581,25.6301429 4.7777186,22.9972857 0.0154627907,20.3644286 C-0.0299325581,21.3672857 0.0395790698,22.3915714 0.0395790698,23.3201429 L0.0395790698,33.1101429 L0.0395790698,49.2644286 C0.0395790698,51.0572857 1.00706744,52.7772857 2.55334651,53.6758571 C7.03755581,56.283 11.5231837,58.8915714 16.007393,61.4987143 C18.9595093,63.2158571 21.9116256,64.9315714 24.8651605,66.6487143 C26.4880442,67.593 28.3194628,69.0001429 30.2686256,69.0001429 C32.219207,69.0001429 34.0506256,67.593 35.6763465,66.6487143 C38.4809279,65.0158571 41.2883465,63.3844286 44.0943465,61.753 C48.7260907,59.0615714 53.3564163,56.3687143 57.9867419,53.6758571 C59.1868814,52.9787143 59.8990209,52.0301429 60.2267186,51.0015714 C60.2352302,50.9758571 60.2465791,50.9501429 60.2550907,50.923 C60.2607651,50.8987143 60.2664395,50.873 60.2735326,50.8487143 C60.4182302,50.3701429 60.5005093,49.8444286 60.5005093,49.2644286 L60.5005093,33.6187143 L60.5005093,23.3201429 C60.5005093,22.4001429 60.5686023,21.3844286 60.5260442,20.3887143 L46.3967419,28.2772857 Z" id="outer-bottom" fill="#919396"></path>
        <path d="M16.5718716,23.6578081 C16.6643959,23.7097866 16.7512265,23.7646528 16.8337866,23.8209629 C21.1895478,21.2711276 25.545309,18.7198484 29.8996467,16.1685692 C34.3578963,18.78049 38.8147226,21.3909669 43.2729722,24 C43.3526855,23.9451338 43.4224346,23.8830483 43.512112,23.8325136 C48.3418825,21.1166358 53.171653,18.3993142 58,15.6848802 C57.0178186,14.947074 55.8477415,14.3883048 54.8570194,13.807878 C52.0414326,12.1590037 49.2258458,10.5086856 46.4088356,8.8598114 C41.7626903,6.13960204 37.1165451,3.41794883 32.4689764,0.696295628 C30.8832516,-0.232098543 28.9174652,-0.232098543 27.330317,0.696295628 C22.8293638,3.33131796 18.329834,5.96778414 13.8303043,8.60280648 C10.868102,10.3368678 7.90447625,12.0723729 4.94369741,13.807878 C4.01845403,14.3493209 2.94090135,14.8748816 2,15.5419393 C6.8582395,18.2477101 11.7150555,20.9520372 16.5718716,23.6578081" id="outer-top" fill="#919396"></path>
        <path d="M31.5,32 C34.3333333,30.6332253 37.1666667,29.2664506 40,27.8982172 L31.5,23 L23,27.8982172 C25.8347946,29.2664506 28.6681279,30.6332253 31.5,32" id="inner-top" fill="#020303"></path>
        <path d="M33,34.1689574 L33,45 L41,40.0211074 L41,30 C38.3337886,31.3901433 35.6675773,32.7788141 33,34.1689574" id="inner-right" fill="#020303"></path>
        <path d="M30,34.1685481 C27.3337886,32.7800137 24.6675773,31.3900069 22,30 L22,40.0201237 L30,45 L30,34.1685481 Z" id="inner-left" fill="#020303"></path>
        <path d="M102,47.1472859 C101.269062,47.4260902 100.644778,47.6560319 100.127149,47.8356738 C99.6066753,48.0167529 99.1089548,48.1805864 98.629721,48.3286113 C98.1504873,48.4751991 97.4579447,48.664901 96.5478272,48.8934056 C95.0063156,49.2541266 93.4704923,49.5300567 91.9375131,49.7183214 C90.4031118,49.9065862 88.7848091,50 87.0811828,50 C83.6568656,50 80.4927851,49.3690975 77.5889414,48.1058553 C74.6850977,46.8440503 72.3600318,44.8837973 70.6165879,42.2279708 C68.873144,39.5721442 68,36.3084093 68,32.4396403 C68,29.9462101 68.4507926,27.5002053 69.3523778,25.0973146 C70.2511188,22.6944239 71.6262495,20.7715365 73.4763478,19.3300895 C75.0007947,18.1329556 76.5465724,17.2189373 78.113681,16.5865977 C79.6793676,15.9556952 81.2066586,15.5331773 82.7012422,15.3204812 C84.1929817,15.1077852 85.8397256,15 87.6400519,15 C90.6107324,15 93.0595173,15.2256303 94.990673,15.6768909 C96.9218286,16.1281514 99.0392739,16.7216884 101.343009,17.4603761 L101.343009,25.5284553 C99.818562,24.6259341 98.2031034,23.871438 96.4994772,23.2649667 C94.797273,22.6570584 92.6698733,22.3552599 90.1229662,22.3552599 C87.1864152,22.3552599 84.8385963,22.9171799 83.0780877,24.0381457 C81.3175792,25.1619857 80.0917646,26.5028332 79.4020662,28.0606882 C78.7137898,29.6185432 78.3682295,31.1275355 78.3682295,32.5862281 C78.3682295,34.3079166 78.766406,35.8945142 79.5599147,37.3460212 C80.3548455,38.796091 81.556485,39.9616079 83.1619892,40.8382607 C84.7689155,41.7163505 86.7086035,42.1546768 88.9796311,42.1546768 C90.2765486,42.1546768 91.6573675,41.9822206 93.1178217,41.6387452 L93.1178217,37.6291369 L88.541637,37.6291369 L88.541637,30.7668145 L102,30.7668145 L102,47.1472859 Z" id="g" fill="#000000"></path>
        <polygon id="y" fill="#000000" points="143 15 129.73135 33.4225791 129.73135 49 119.51426 49 119.51426 33.6189452 106 15 116.606924 15 124.377909 25.6955019 132.174598 15"></polygon>
        <path d="M170,39.644001 C170,41.7767102 169.457917,43.6205551 168.375178,45.1784101 C167.295292,46.7362651 165.784593,47.9290876 163.848787,48.7568777 C161.910128,49.5846678 159.687589,50 157.182596,50 C156.482168,50 155.623395,49.9540117 154.606277,49.8634721 C153.589158,49.7729326 152.238231,49.5243081 150.553495,49.1132873 C148.868759,48.7051408 147.115549,48.0972325 145.293866,47.2938737 L145.293866,38.9311817 C147.001427,39.9975363 148.681883,40.8828119 150.333809,41.5884454 C151.985735,42.2926419 153.756063,42.6461772 155.644793,42.6461772 C157.385164,42.6461772 158.512126,42.3544387 159.025678,41.7723988 C159.537803,41.1903589 159.794579,40.6442474 159.794579,40.1355014 C159.794579,39.2186089 159.355207,38.4439928 158.476462,37.8116531 C157.597718,37.1821877 156.319544,36.5297282 154.64194,35.8571487 C152.788873,35.0695984 151.159772,34.2130656 149.760342,33.2861132 C148.359486,32.3605978 147.216833,31.2008294 146.329529,29.8053708 C145.442225,28.4127864 145,26.7643919 145,24.8616244 C145,23.0264022 145.446505,21.3650735 146.342368,19.8819496 C147.236805,18.3973885 148.60485,17.2117517 150.443652,16.3264761 C152.28388,15.4412006 154.529244,15 157.182596,15 C159.071327,15 160.815977,15.1825162 162.419401,15.5532972 C164.022825,15.9212039 165.343795,16.3365361 166.388017,16.7949823 C167.42796,17.2534286 168.14408,17.6141496 168.536377,17.8771454 L168.536377,25.8704936 C167.151213,24.8702472 165.60913,23.9763489 163.908702,23.1902357 C162.206847,22.4026854 160.389444,22.0089102 158.450785,22.0089102 C157.182596,22.0089102 156.262482,22.2546604 155.693295,22.7475979 C155.122682,23.2390983 154.838802,23.8455695 154.838802,24.5670116 C154.838802,25.239591 155.122682,25.8216309 155.693295,26.3145684 C156.262482,26.8060688 157.279601,27.4039172 158.74465,28.1095508 C161.349501,29.3383017 163.43224,30.4463333 164.994294,31.429334 C166.557775,32.4137719 167.78174,33.549109 168.669044,34.8367825 C169.554922,36.1230188 170,37.7268621 170,39.644001" id="s" fill="#000000"></path>
    </g>
</svg>