<?xml version="1.0" encoding="UTF-8"?>
<svg width="272px" height="107px" viewBox="0 0 272 107" version="1.1" xmlns="http://www.w3.org/2000/svg" xmlns:xlink="http://www.w3.org/1999/xlink">
    <!-- Generator: Sketch 50.2 (55047) - http://www.bohemiancoding.com/sketch -->
    <title>gys-gc-logo</title>
    <desc>Created with Sketch.</desc>
    <defs>
        <polygon id="path-1" points="0.175246827 0.9594 95.4923436 0.9594 95.4923436 77 0.175246827 77"></polygon>
        <polygon id="path-3" points="0 0.983458153 34.9809627 0.983458153 34.9809627 23.860786 0 23.860786"></polygon>
        <polygon id="path-5" points="0 107.435 271.625 107.435 271.625 0 0 0"></polygon>
    </defs>
    <g id="gys-gc-logo" stroke="none" stroke-width="1" fill="none" fill-rule="evenodd">
        <g id="Group-3" transform="translate(6.000000, 30.435000)">
            <mask id="mask-2" fill="white">
                <use xlink:href="#path-1"></use>
            </mask>
            <g id="Clip-2"></g>
            <path d="M73.2247,13.3304 C73.0437,13.4314 72.8667,13.4914 72.6877,13.5624 L72.6877,37.6244 C64.4027,42.4074 56.1187,47.1904 47.8337,51.9744 L22.9797,37.6244 L22.9797,13.4504 C22.8837,13.4054 22.7877,13.3624 22.6917,13.3094 C15.1937,9.1934 7.6957,5.0764 0.1987,0.9594 C0.1287,2.5284 0.2377,4.1294 0.2377,5.5804 L0.2377,20.8874 L0.2377,46.1434 C0.2377,48.9474 1.7597,51.6364 4.1947,53.0404 C11.2547,57.1184 18.3167,61.1954 25.3767,65.2704 C30.0267,67.9554 34.6747,70.6404 39.3237,73.3234 C41.8797,74.8004 44.7627,77.0004 47.8327,77.0004 C50.9017,77.0004 53.7857,74.8004 56.3457,73.3234 C60.7637,70.7714 65.1827,68.2214 69.5997,65.6694 C76.8917,61.4604 84.1827,57.2504 91.4747,53.0404 C93.3627,51.9504 94.4827,50.4684 94.9987,48.8604 C95.0137,48.8184 95.0297,48.7794 95.0427,48.7374 C95.0547,48.6984 95.0627,48.6594 95.0737,48.6214 C95.3007,47.8744 95.4307,47.0514 95.4307,46.1434 L95.4307,21.6824 L95.4307,5.5804 C95.4307,4.1414 95.5367,2.5544 95.4707,0.9974 L73.2247,13.3304 Z" id="Fill-1" fill="#D1D2D3" mask="url(#mask-2)"></path>
        </g>
        <path d="M32.9205,36.598 C33.0665,36.678 33.2025,36.763 33.3315,36.85 C40.1655,32.905 46.9995,28.959 53.8345,25.014 C60.8285,29.052 67.8225,33.09 74.8165,37.128 C74.9415,37.041 75.0505,36.947 75.1925,36.869 C82.7705,32.667 90.3485,28.465 97.9265,24.263 C96.3845,23.123 94.5475,22.258 92.9945,21.36 C88.5765,18.809 84.1575,16.257 79.7375,13.706 C72.4475,9.497 65.1575,5.287 57.8655,1.077 C55.3765,-0.359 52.2915,-0.359 49.8015,1.077 C42.7395,5.155 35.6795,9.232 28.6175,13.308 C23.9705,15.992 19.3205,18.676 14.6725,21.36 C13.2235,22.197 11.5315,23.012 10.0565,24.044 C17.6775,28.229 25.2985,32.413 32.9205,36.598" id="Fill-4" fill="#D1D2D3"></path>
        <g id="Group-8" transform="translate(0.000000, 20.435000)">
            <mask id="mask-4" fill="white">
                <use xlink:href="#path-3"></use>
            </mask>
            <g id="Clip-7"></g>
            <path d="M28.6915,23.3094 C28.7875,23.3624 28.8835,23.4054 28.9805,23.4504 C33.4335,25.5364 37.2925,19.1274 33.3315,16.4154 C33.2025,16.3274 33.0665,16.2424 32.9205,16.1634 C25.2985,11.9774 17.6775,7.7934 10.0565,3.6084 C8.8005,2.9194 7.5455,2.2304 6.2895,1.5404 C1.5735,-1.0506 -2.6595,6.0954 2.0605,8.6874 C3.4405,9.4444 4.8195,10.2014 6.1985,10.9594 C13.6955,15.0764 21.1935,19.1934 28.6915,23.3094" id="Fill-6" fill="#FEFEFE" mask="url(#mask-4)"></path>
        </g>
        <path d="M102.088,21.9554 C100.701,22.7244 99.314,23.4944 97.927,24.2624 C90.349,28.4644 82.77,32.6664 75.192,36.8684 C75.051,36.9474 74.942,37.0414 74.817,37.1284 C71.133,39.6874 74.554,45.6364 78.688,43.9974 C78.866,43.9264 79.044,43.8664 79.225,43.7654 L101.47,31.4324 L106.119,28.8544 C110.617,26.3604 106.592,19.4584 102.088,21.9554" id="Fill-9" fill="#FEFEFE"></path>
        <path d="M38.964,47.4256 L38.964,62.6246 L52.045,70.1786 L52.045,53.7486 C47.685,51.6406 43.324,49.5336 38.964,47.4256" id="Fill-11" fill="#51813B"></path>
        <path d="M56.0396,70.1776 L69.1206,62.6246 L69.1206,47.4256 C64.7606,49.5336 60.3996,51.6406 56.0396,53.7486 L56.0396,70.1776 Z" id="Fill-13" fill="#51813B"></path>
        <path d="M67.0357,44.011 L54.0417,36.509 L41.0507,44.01 C45.3807,46.104 49.7117,48.197 54.0417,50.29 C58.3727,48.198 62.7037,46.104 67.0357,44.011" id="Fill-15" fill="#51813B"></path>
        <path d="M54.0416,50.2903 C49.7116,48.1963 45.3806,46.1033 41.0506,44.0103 C40.6906,43.8363 40.3316,43.6633 39.9726,43.4893 C37.6686,42.3753 35.6396,45.8183 37.9566,46.9383 C38.2916,47.1013 38.6276,47.2633 38.9636,47.4253 C43.3246,49.5343 47.6846,51.6413 52.0446,53.7483 L52.0446,70.1783 L52.0446,71.3303 C52.0446,73.9013 56.0396,73.9043 56.0396,71.3303 L56.0396,70.1773 L56.0396,53.7483 C60.3996,51.6403 64.7606,49.5343 69.1206,47.4253 C69.4576,47.2633 69.7926,47.1013 70.1296,46.9383 C72.4426,45.8193 70.4186,42.3743 68.1136,43.4903 C67.7536,43.6643 67.3946,43.8373 67.0356,44.0113 C62.7046,46.1033 58.3736,48.1973 54.0416,50.2903" id="Fill-17" fill="#FEFEFE"></path>
        <path d="M162.7003,74.2967 C161.5543,74.7307 160.5723,75.0867 159.7563,75.3667 C158.9413,75.6477 158.1583,75.9017 157.4063,76.1317 C156.6543,76.3597 155.5653,76.6537 154.1373,77.0107 C151.7163,77.5707 149.3033,77.9977 146.8933,78.2907 C144.4843,78.5837 141.9443,78.7307 139.2663,78.7307 C133.8903,78.7307 128.9213,77.7497 124.3603,75.7867 C119.7983,73.8247 116.1473,70.7787 113.4073,66.6507 C110.6673,62.5227 109.2973,57.4517 109.2973,51.4367 C109.2973,47.5637 110.0063,43.7597 111.4193,40.0267 C112.8333,36.2937 114.9933,33.3047 117.8993,31.0627 C120.2943,29.2027 122.7213,27.7807 125.1803,26.8007 C127.6393,25.8187 130.0423,25.1627 132.3863,24.8317 C134.7313,24.5007 137.3183,24.3347 140.1463,24.3347 C144.8103,24.3347 148.6583,24.6847 151.6913,25.3857 C154.7223,26.0867 158.0493,27.0107 161.6693,28.1567 L161.6693,40.6947 C159.2723,39.2947 156.7373,38.1217 154.0613,37.1787 C151.3863,36.2357 148.0463,35.7637 144.0463,35.7637 C139.4323,35.7637 135.7433,36.6367 132.9793,38.3817 C130.2143,40.1287 128.2903,42.2117 127.2063,44.6327 C126.1233,47.0537 125.5833,49.3987 125.5833,51.6667 C125.5833,54.3417 126.2073,56.8077 127.4553,59.0637 C128.7033,61.3177 130.5903,63.1277 133.1133,64.4917 C135.6363,65.8547 138.6793,66.5357 142.2503,66.5357 C144.2883,66.5357 146.4533,66.2687 148.7473,65.7337 L148.7473,59.5027 L141.5603,59.5027 L141.5603,48.8377 L162.7003,48.8377 L162.7003,74.2967 Z" id="Fill-19" fill="#939597"></path>
        <polygon id="Fill-21" fill="#939597" points="226.9581 25.0609 206.2031 53.7689 206.2031 78.0429 190.2241 78.0429 190.2241 54.0749 169.0831 25.0609 185.6751 25.0609 197.8311 41.7279 210.0261 25.0609"></polygon>
        <path d="M268.9181,62.6375 C268.9181,65.9505 268.0691,68.8175 266.3751,71.2385 C264.6811,73.6595 262.3161,75.5135 259.2851,76.8005 C256.2521,78.0865 252.7721,78.7305 248.8491,78.7305 C247.7531,78.7305 246.4081,78.6595 244.8151,78.5205 C243.2221,78.3805 241.1081,77.9915 238.4701,77.3545 C235.8331,76.7175 233.0871,75.7745 230.2331,74.5255 L230.2331,61.5295 C232.9071,63.1855 235.5391,64.5625 238.1261,65.6575 C240.7121,66.7525 243.4841,67.3005 246.4411,67.3005 C249.1671,67.3005 250.9321,66.8485 251.7351,65.9445 C252.5371,65.0385 252.9381,64.1925 252.9381,63.4025 C252.9381,61.9755 252.2511,60.7705 250.8751,59.7885 C249.4991,58.8085 247.4971,57.7955 244.8731,56.7505 C241.9681,55.5275 239.4201,54.1955 237.2281,52.7555 C235.0351,51.3165 233.2461,49.5125 231.8571,47.3465 C230.4671,45.1805 229.7741,42.6195 229.7741,39.6635 C229.7741,36.8095 230.4751,34.2285 231.8761,31.9225 C233.2771,29.6165 235.4181,27.7745 238.2981,26.3985 C241.1781,25.0225 244.6951,24.3345 248.8491,24.3345 C251.8051,24.3345 254.5371,24.6205 257.0481,25.1955 C259.5581,25.7675 261.6291,26.4115 263.2611,27.1245 C264.8911,27.8385 266.0131,28.3995 266.6241,28.8065 L266.6241,41.2305 C264.4571,39.6765 262.0421,38.2865 259.3801,37.0635 C256.7171,35.8405 253.8691,35.2285 250.8361,35.2285 C248.8491,35.2285 247.4081,35.6115 246.5161,36.3755 C245.6251,37.1405 245.1791,38.0835 245.1791,39.2045 C245.1791,40.2495 245.6251,41.1545 246.5161,41.9185 C247.4081,42.6825 249.0011,43.6135 251.2951,44.7095 C255.3721,46.6205 258.6351,48.3405 261.0811,49.8695 C263.5271,51.3985 265.4451,53.1635 266.8341,55.1645 C268.2221,57.1645 268.9181,59.6565 268.9181,62.6375" id="Fill-23" fill="#939597"></path>
        <path d="M118.1002,86.0272 C119.0072,86.0272 119.9062,86.2292 120.7962,86.6322 L120.7962,87.9332 C119.9062,87.4802 119.0272,87.2552 118.1642,87.2552 C117.6272,87.2552 117.1502,87.3612 116.7322,87.5752 C116.3152,87.7902 115.9912,88.0972 115.7602,88.5002 C115.5312,88.9012 115.4162,89.3492 115.4162,89.8442 C115.4162,90.5962 115.6662,91.2012 116.1652,91.6592 C116.6662,92.1172 117.3272,92.3462 118.1442,92.3462 C118.3692,92.3462 118.5842,92.3272 118.7882,92.2882 C118.9932,92.2502 119.2392,92.1752 119.5232,92.0672 L119.5232,90.8452 L118.3062,90.8452 L118.3062,89.7342 L120.9452,89.7342 L120.9452,92.7672 C120.5842,93.0202 120.1492,93.2172 119.6422,93.3592 C119.1332,93.5022 118.6062,93.5732 118.0592,93.5732 C117.2832,93.5732 116.5802,93.4132 115.9502,93.0932 C115.3202,92.7742 114.8292,92.3272 114.4762,91.7512 C114.1232,91.1752 113.9472,90.5332 113.9472,89.8242 C113.9472,89.1042 114.1252,88.4532 114.4802,87.8702 C114.8362,87.2872 115.3342,86.8352 115.9722,86.5112 C116.6092,86.1882 117.3192,86.0272 118.1002,86.0272" id="Fill-25" fill="#51813B"></path>
        <polygon id="Fill-27" fill="#51813B" points="127.2169 86.1219 127.2169 87.2319 123.8829 87.2319 123.8829 89.1659 127.0749 89.1659 127.0749 90.2759 123.8829 90.2759 123.8829 92.3669 127.2899 92.3669 127.2899 93.4779 122.4629 93.4779 122.4629 86.1219"></polygon>
        <polygon id="Fill-29" fill="#51813B" points="129.8648 86.1219 134.2368 91.2569 134.2368 86.1219 135.6268 86.1219 135.6268 93.4779 134.4048 93.4779 130.0088 88.2599 130.0088 93.4779 128.6178 93.4779 128.6178 86.1219"></polygon>
        <polygon id="Fill-31" fill="#51813B" points="141.9972 86.1219 141.9972 87.2319 138.6642 87.2319 138.6642 89.1659 141.8552 89.1659 141.8552 90.2759 138.6642 90.2759 138.6642 92.3669 142.0722 92.3669 142.0722 93.4779 137.2432 93.4779 137.2432 86.1219"></polygon>
        <path d="M145.7267,89.2596 C146.0977,89.2596 146.3907,89.1666 146.6037,88.9816 C146.8157,88.7946 146.9217,88.5406 146.9217,88.2176 C146.9217,87.8806 146.8157,87.6286 146.6067,87.4616 C146.3947,87.2946 146.0947,87.2116 145.7047,87.2116 L144.8217,87.2116 L144.8217,89.2596 L145.7267,89.2596 Z M146.0477,86.1216 C146.7397,86.1216 147.3017,86.3136 147.7397,86.6966 C148.1727,87.0786 148.3917,87.5766 148.3917,88.1916 C148.3917,88.6096 148.2827,88.9726 148.0667,89.2836 C147.8517,89.5946 147.5307,89.8396 147.1057,90.0186 C147.3407,90.1446 147.5497,90.3176 147.7327,90.5346 C147.9147,90.7526 148.1417,91.1186 148.4137,91.6356 C148.8607,92.5276 149.1947,93.1416 149.4117,93.4786 L147.8267,93.4786 C147.7187,93.3166 147.5707,93.0586 147.3847,92.7036 C146.9777,91.9206 146.6797,91.3936 146.4917,91.1206 C146.3007,90.8496 146.1187,90.6556 145.9417,90.5426 C145.7667,90.4286 145.5647,90.3716 145.3357,90.3716 L144.8217,90.3716 L144.8217,93.4786 L143.3987,93.4786 L143.3987,86.1216 L146.0477,86.1216 Z" id="Fill-33" fill="#51813B"></path>
        <path d="M152.2188,90.6082 L154.5948,90.6082 L153.3518,87.6962 L152.2188,90.6082 Z M154.0728,86.1222 L157.3228,93.4782 L155.8218,93.4782 L155.0568,91.6872 L151.7858,91.6872 L151.0758,93.4782 L149.5858,93.4782 L152.6188,86.1222 L154.0728,86.1222 Z" id="Fill-35" fill="#51813B"></path>
        <polygon id="Fill-37" fill="#51813B" points="159.6065 86.1219 159.6065 92.3669 163.1755 92.3669 163.1755 93.4779 158.1865 93.4779 158.1865 86.1219"></polygon>
        <path d="M171.0089,86.0272 C171.4269,86.0272 171.8359,86.0752 172.2359,86.1692 C172.6349,86.2632 173.0669,86.4252 173.5299,86.6532 L173.5299,87.9912 C173.0769,87.7312 172.6589,87.5442 172.2759,87.4272 C171.8909,87.3122 171.4889,87.2552 171.0709,87.2552 C170.5489,87.2552 170.0749,87.3622 169.6549,87.5782 C169.2339,87.7942 168.9049,88.0982 168.6729,88.4922 C168.4389,88.8842 168.3219,89.3212 168.3219,89.8022 C168.3219,90.2952 168.4379,90.7342 168.6699,91.1252 C168.9029,91.5132 169.2289,91.8152 169.6499,92.0272 C170.0719,92.2402 170.5439,92.3462 171.0709,92.3462 C171.4759,92.3462 171.8609,92.2882 172.2279,92.1732 C172.5939,92.0562 173.0559,91.8472 173.6139,91.5462 L173.6139,92.8822 C173.1369,93.1322 172.6979,93.3092 172.2979,93.4152 C171.8989,93.5202 171.4299,93.5732 170.8979,93.5732 C170.1219,93.5732 169.4279,93.4192 168.8189,93.1102 C168.2059,92.8002 167.7259,92.3552 167.3759,91.7742 C167.0279,91.1942 166.8539,90.5572 166.8539,89.8662 C166.8539,89.1252 167.0329,88.4602 167.3919,87.8702 C167.7539,87.2802 168.2469,86.8262 168.8769,86.5062 C169.5079,86.1872 170.2189,86.0272 171.0089,86.0272" id="Fill-39" fill="#51813B"></path>
        <path d="M176.045,89.8026 C176.045,90.2906 176.156,90.7296 176.378,91.1186 C176.599,91.5086 176.906,91.8116 177.303,92.0256 C177.696,92.2396 178.143,92.3466 178.642,92.3466 C179.397,92.3466 180.018,92.1096 180.505,91.6356 C180.989,91.1606 181.233,90.5506 181.233,89.8026 C181.233,89.3146 181.122,88.8746 180.904,88.4846 C180.684,88.0926 180.375,87.7896 179.978,87.5746 C179.577,87.3616 179.13,87.2546 178.632,87.2546 C178.133,87.2546 177.684,87.3626 177.285,87.5776 C176.888,87.7936 176.582,88.0956 176.366,88.4846 C176.153,88.8716 176.045,89.3116 176.045,89.8026 M178.642,86.0276 C179.403,86.0276 180.09,86.1846 180.698,86.4976 C181.307,86.8126 181.793,87.2656 182.155,87.8566 C182.516,88.4486 182.696,89.0966 182.696,89.8026 C182.696,90.4906 182.521,91.1286 182.168,91.7166 C181.816,92.3046 181.33,92.7616 180.714,93.0856 C180.099,93.4096 179.403,93.5736 178.632,93.5736 C177.869,93.5736 177.178,93.4076 176.554,93.0776 C175.93,92.7476 175.446,92.2936 175.098,91.7166 C174.75,91.1396 174.577,90.5006 174.577,89.8026 C174.577,89.1276 174.75,88.4946 175.098,87.9026 C175.446,87.3086 175.925,86.8476 176.535,86.5196 C177.147,86.1916 177.849,86.0276 178.642,86.0276" id="Fill-41" fill="#51813B"></path>
        <polygon id="Fill-43" fill="#51813B" points="185.2755 86.1219 189.6475 91.2569 189.6475 86.1219 191.0385 86.1219 191.0385 93.4779 189.8165 93.4779 185.4195 88.2599 185.4195 93.4779 184.0295 93.4779 184.0295 86.1219"></polygon>
        <polygon id="Fill-45" fill="#51813B" points="198.756 86.1219 198.756 87.2319 196.147 87.2319 196.147 93.4779 194.723 93.4779 194.723 87.2319 192.111 87.2319 192.111 86.1219"></polygon>
        <path d="M202.1651,89.2596 C202.5371,89.2596 202.8281,89.1666 203.0411,88.9816 C203.2551,88.7946 203.3601,88.5406 203.3601,88.2176 C203.3601,87.8806 203.2551,87.6286 203.0441,87.4616 C202.8331,87.2946 202.5341,87.2116 202.1441,87.2116 L201.2591,87.2116 L201.2591,89.2596 L202.1651,89.2596 Z M202.4851,86.1216 C203.1781,86.1216 203.7411,86.3136 204.1771,86.6966 C204.6121,87.0786 204.8291,87.5766 204.8291,88.1916 C204.8291,88.6096 204.7211,88.9726 204.5061,89.2836 C204.2891,89.5946 203.9691,89.8396 203.5451,90.0186 C203.7781,90.1446 203.9881,90.3176 204.1711,90.5346 C204.3531,90.7526 204.5791,91.1186 204.8511,91.6356 C205.3001,92.5276 205.6331,93.1416 205.8511,93.4786 L204.2661,93.4786 C204.1561,93.3166 204.0101,93.0586 203.8241,92.7036 C203.4171,91.9206 203.1171,91.3936 202.9291,91.1206 C202.7381,90.8496 202.5561,90.6556 202.3811,90.5426 C202.2041,90.4286 202.0031,90.3716 201.7751,90.3716 L201.2591,90.3716 L201.2591,93.4786 L199.8381,93.4786 L199.8381,86.1216 L202.4851,86.1216 Z" id="Fill-47" fill="#51813B"></path>
        <path d="M208.6583,90.6082 L211.0323,90.6082 L209.7903,87.6962 L208.6583,90.6082 Z M210.5123,86.1222 L213.7623,93.4782 L212.2613,93.4782 L211.4963,91.6872 L208.2253,91.6872 L207.5153,93.4782 L206.0253,93.4782 L209.0583,86.1222 L210.5123,86.1222 Z" id="Fill-49" fill="#51813B"></path>
        <path d="M218.171,86.0272 C218.587,86.0272 218.997,86.0752 219.398,86.1692 C219.797,86.2632 220.229,86.4252 220.692,86.6532 L220.692,87.9912 C220.239,87.7312 219.821,87.5442 219.436,87.4272 C219.052,87.3122 218.651,87.2552 218.233,87.2552 C217.71,87.2552 217.237,87.3622 216.817,87.5782 C216.396,87.7942 216.067,88.0982 215.835,88.4922 C215.601,88.8842 215.483,89.3212 215.483,89.8022 C215.483,90.2952 215.601,90.7342 215.832,91.1252 C216.065,91.5132 216.391,91.8152 216.812,92.0272 C217.233,92.2402 217.707,92.3462 218.233,92.3462 C218.637,92.3462 219.023,92.2882 219.39,92.1732 C219.756,92.0562 220.218,91.8472 220.776,91.5462 L220.776,92.8822 C220.299,93.1322 219.86,93.3092 219.459,93.4152 C219.06,93.5202 218.594,93.5732 218.06,93.5732 C217.283,93.5732 216.59,93.4192 215.981,93.1102 C215.368,92.8002 214.888,92.3552 214.54,91.7742 C214.191,91.1942 214.016,90.5572 214.016,89.8662 C214.016,89.1252 214.195,88.4602 214.556,87.8702 C214.914,87.2802 215.41,86.8262 216.039,86.5062 C216.67,86.1872 217.38,86.0272 218.171,86.0272" id="Fill-51" fill="#51813B"></path>
        <polygon id="Fill-53" fill="#51813B" points="228.2325 86.1219 228.2325 87.2319 225.6215 87.2319 225.6215 93.4779 224.1995 93.4779 224.1995 87.2319 221.5875 87.2319 221.5875 86.1219"></polygon>
        <mask id="mask-6" fill="white">
            <use xlink:href="#path-5"></use>
        </mask>
        <g id="Clip-56"></g>
        <polygon id="Fill-55" fill="#51813B" mask="url(#mask-6)" points="229.344 93.478 230.765 93.478 230.765 86.122 229.344 86.122"></polygon>
        <polygon id="Fill-57" fill="#51813B" mask="url(#mask-6)" points="233.6671 86.1219 238.0371 91.2569 238.0371 86.1219 239.4281 86.1219 239.4281 93.4779 238.2061 93.4779 233.8101 88.2599 233.8101 93.4779 232.4191 93.4779 232.4191 86.1219"></polygon>
        <path d="M244.9044,86.0272 C245.8084,86.0272 246.7084,86.2292 247.6004,86.6322 L247.6004,87.9332 C246.7084,87.4802 245.8314,87.2552 244.9664,87.2552 C244.4294,87.2552 243.9524,87.3612 243.5344,87.5752 C243.1164,87.7902 242.7934,88.0972 242.5624,88.5002 C242.3334,88.9012 242.2174,89.3492 242.2174,89.8442 C242.2174,90.5962 242.4684,91.2012 242.9674,91.6592 C243.4684,92.1172 244.1274,92.3462 244.9464,92.3462 C245.1714,92.3462 245.3844,92.3272 245.5914,92.2882 C245.7974,92.2502 246.0424,92.1752 246.3254,92.0672 L246.3254,90.8452 L245.1084,90.8452 L245.1084,89.7342 L247.7474,89.7342 L247.7474,92.7672 C247.3844,93.0202 246.9514,93.2172 246.4444,93.3592 C245.9364,93.5022 245.4094,93.5732 244.8624,93.5732 C244.0854,93.5732 243.3834,93.4132 242.7534,93.0932 C242.1224,92.7742 241.6314,92.3272 241.2784,91.7512 C240.9254,91.1752 240.7494,90.5332 240.7494,89.8242 C240.7494,89.1042 240.9264,88.4532 241.2834,87.8702 C241.6394,87.2872 242.1354,86.8352 242.7724,86.5112 C243.4114,86.1882 244.1214,86.0272 244.9044,86.0272" id="Fill-58" fill="#51813B" mask="url(#mask-6)"></path>
        <polygon id="Fill-59" fill="#51813B" mask="url(#mask-6)" points="252.2433 86.1219 253.2973 86.1219 253.2973 92.5199 256.6093 92.5199 256.6093 93.4779 252.2433 93.4779"></polygon>
        <polygon id="Fill-60" fill="#51813B" mask="url(#mask-6)" points="257.5841 86.1219 258.6381 86.1219 258.6381 92.5199 261.9501 92.5199 261.9501 93.4779 257.5841 93.4779"></polygon>
        <path d="M269.2628,91.7723 L269.2628,92.9303 C268.4908,93.3513 267.5998,93.5623 266.5888,93.5623 C265.7668,93.5623 265.0708,93.3973 264.4978,93.0683 C263.9248,92.7383 263.4728,92.2833 263.1388,91.7033 C262.8048,91.1253 262.6398,90.4983 262.6398,89.8243 C262.6398,88.7523 263.0208,87.8523 263.7848,87.1233 C264.5478,86.3923 265.4888,86.0273 266.6088,86.0273 C267.3808,86.0273 268.2398,86.2293 269.1848,86.6323 L269.1848,87.7643 C268.3238,87.2733 267.4828,87.0273 266.6618,87.0273 C265.8198,87.0273 265.1198,87.2933 264.5638,87.8253 C264.0058,88.3573 263.7288,89.0233 263.7288,89.8243 C263.7288,90.6313 264.0028,91.2943 264.5508,91.8143 C265.0988,92.3343 265.7978,92.5933 266.6518,92.5933 C267.5428,92.5933 268.4138,92.3193 269.2628,91.7723" id="Fill-61" fill="#51813B" mask="url(#mask-6)"></path>
        <path d="M270.9776,92.3045 C271.1556,92.3045 271.3086,92.3665 271.4346,92.4885 C271.5616,92.6115 271.6246,92.7615 271.6246,92.9415 C271.6246,93.1165 271.5626,93.2645 271.4376,93.3825 C271.3136,93.5025 271.1606,93.5625 270.9776,93.5625 C270.7976,93.5625 270.6466,93.5025 270.5236,93.3825 C270.4016,93.2645 270.3396,93.1165 270.3396,92.9415 C270.3396,92.7615 270.4016,92.6115 270.5236,92.4885 C270.6466,92.3665 270.7976,92.3045 270.9776,92.3045" id="Fill-62" fill="#51813B" mask="url(#mask-6)"></path>
    </g>
</svg>