<svg xmlns="http://www.w3.org/2000/svg" xmlns:xlink="http://www.w3.org/1999/xlink" width="272" height="107"><defs><path id="a" d="M.175.96h95.317V77H.175z"/><path id="c" d="M0 .983h34.981v22.878H0z"/><path id="e" d="M0 107.435h271.625V0H0z"/></defs><g fill="none" fill-rule="evenodd"><g transform="translate(6 30.435)"><mask id="b" fill="#fff"><use xlink:href="#a"/></mask><path fill="#D1D2D3" d="M73.225 13.33c-.181.101-.358.161-.537.232v24.062l-24.854 14.35-24.854-14.35V13.45c-.096-.045-.192-.088-.288-.14L.199.96c-.07 1.568.039 3.17.039 4.62v40.563c0 2.804 1.522 5.493 3.957 6.897 7.06 4.078 14.122 8.155 21.182 12.23 4.65 2.685 9.298 5.37 13.947 8.053C41.88 74.8 44.763 77 47.833 77c3.069 0 5.953-2.2 8.513-3.677 4.418-2.552 8.837-5.102 13.254-7.654L91.475 53.04c1.888-1.09 3.008-2.572 3.524-4.18.015-.042.03-.08.044-.123.012-.039.02-.078.03-.116.228-.747.358-1.57.358-2.478V5.58c0-1.439.106-3.026.04-4.583L73.225 13.33z" mask="url(#b)"/></g><path fill="#D1D2D3" d="M32.92 36.598c.146.08.282.165.411.252l20.503-11.836 20.983 12.114c.125-.087.234-.181.376-.259l22.734-12.606c-1.543-1.14-3.38-2.005-4.933-2.903l-13.257-7.654L57.867 1.077a8.086 8.086 0 0 0-8.065 0C42.74 5.155 35.68 9.232 28.617 13.308c-4.646 2.684-9.297 5.368-13.945 8.052-1.449.837-3.14 1.652-4.616 2.684L32.92 36.598"/><g transform="translate(0 20.435)"><mask id="d" fill="#fff"><use xlink:href="#c"/></mask><path fill="#FEFEFE" d="M28.692 23.31c.096.052.192.095.288.14 4.454 2.086 8.312-4.323 4.351-7.035a4.68 4.68 0 0 0-.41-.252L10.056 3.608 6.288 1.54C1.575-1.05-2.659 6.095 2.062 8.687l4.138 2.272c7.496 4.117 14.995 8.234 22.493 12.35" mask="url(#d)"/></g><path fill="#FEFEFE" d="M102.088 21.955c-1.387.77-2.774 1.54-4.161 2.307L75.192 36.868c-.141.08-.25.173-.375.26-3.684 2.56-.263 8.508 3.871 6.87.178-.072.356-.132.537-.233l22.245-12.333 4.649-2.578c4.498-2.494.473-9.396-4.031-6.899"/><path fill="#51813B" d="M38.964 47.426v15.199l13.081 7.554v-16.43l-13.081-6.323M56.04 70.178l13.08-7.553v-15.2L56.04 53.75v16.429zM67.036 44.011l-12.994-7.502L41.05 44.01l12.99 6.28c4.332-2.092 8.663-4.186 12.995-6.279"/><path fill="#FEFEFE" d="M54.042 50.29L41.05 44.01l-1.078-.52c-2.304-1.115-4.333 2.328-2.016 3.448l1.007.487c4.36 2.11 8.72 4.216 13.08 6.323V71.33c0 2.571 3.996 2.574 3.996 0V53.748c4.36-2.108 8.72-4.214 13.08-6.323l1.01-.487c2.313-1.119.289-4.564-2.016-3.448l-1.078.521c-4.331 2.092-8.662 4.186-12.994 6.28"/><path fill="#939597" d="M162.7 74.297c-1.146.434-2.128.79-2.944 1.07-.815.28-1.598.535-2.35.765-.752.228-1.84.522-3.269.879-2.42.56-4.834.987-7.244 1.28-2.409.293-4.949.44-7.627.44-5.376 0-10.345-.981-14.906-2.944-4.562-1.962-8.213-5.008-10.953-9.136-2.74-4.128-4.11-9.2-4.11-15.214 0-3.873.71-7.677 2.122-11.41 1.414-3.733 3.574-6.722 6.48-8.964 2.395-1.86 4.822-3.282 7.281-4.262 2.46-.982 4.862-1.638 7.206-1.97 2.345-.33 4.932-.496 7.76-.496 4.664 0 8.512.35 11.545 1.05 3.031.702 6.358 1.626 9.978 2.772v12.538a44.12 44.12 0 0 0-7.608-3.516c-2.675-.943-6.015-1.415-10.015-1.415-4.614 0-8.303.873-11.067 2.618-2.765 1.747-4.689 3.83-5.773 6.25-1.083 2.422-1.623 4.767-1.623 7.035 0 2.675.624 5.14 1.872 7.397 1.248 2.254 3.135 4.064 5.658 5.428 2.523 1.363 5.566 2.044 9.137 2.044 2.038 0 4.203-.267 6.497-.802v-6.231h-7.187V48.838h21.14v25.459zM226.958 25.06L206.203 53.77v24.274h-15.979V54.075l-21.14-29.014h16.591l12.156 16.667 12.195-16.667zM268.918 62.638c0 3.313-.849 6.18-2.543 8.6-1.694 2.421-4.059 4.275-7.09 5.563-3.033 1.285-6.513 1.93-10.436 1.93-1.096 0-2.44-.072-4.034-.21-1.593-.14-3.707-.53-6.345-1.166-2.637-.638-5.383-1.58-8.237-2.83V61.53c2.674 1.656 5.306 3.033 7.893 4.128 2.586 1.096 5.358 1.644 8.315 1.644 2.726 0 4.491-.453 5.294-1.356.802-.906 1.203-1.752 1.203-2.542 0-1.428-.687-2.633-2.063-3.614-1.376-.98-3.378-1.994-6.002-3.038-2.905-1.223-5.453-2.555-7.645-3.995a18.09 18.09 0 0 1-5.37-5.41c-1.39-2.165-2.084-4.726-2.084-7.682 0-2.855.701-5.436 2.102-7.742 1.401-2.306 3.542-4.148 6.422-5.524 2.88-1.375 6.397-2.064 10.551-2.064 2.956 0 5.688.287 8.2.861 2.51.572 4.58 1.216 6.212 1.93 1.63.713 2.752 1.274 3.363 1.681V41.23c-2.167-1.553-4.582-2.944-7.244-4.166-2.663-1.224-5.51-1.836-8.544-1.836-1.987 0-3.428.383-4.32 1.148-.89.765-1.337 1.708-1.337 2.829 0 1.044.446 1.95 1.337 2.714.892.764 2.485 1.695 4.78 2.79 4.076 1.911 7.34 3.631 9.785 5.16 2.446 1.53 4.364 3.294 5.753 5.295 1.388 2 2.084 4.492 2.084 7.474"/><path fill="#51813B" d="M118.1 86.027c.907 0 1.806.202 2.696.605v1.301c-.89-.453-1.769-.678-2.632-.678-.537 0-1.014.106-1.432.32a2.32 2.32 0 0 0-.972.925 2.662 2.662 0 0 0-.344 1.344c0 .752.25 1.357.75 1.815.5.458 1.161.687 1.978.687.225 0 .44-.019.644-.058.205-.038.451-.113.735-.22v-1.223h-1.217v-1.11h2.64v3.032a4.25 4.25 0 0 1-1.304.592 5.821 5.821 0 0 1-1.583.214c-.776 0-1.479-.16-2.109-.48a3.588 3.588 0 0 1-1.474-1.342 3.614 3.614 0 0 1-.529-1.927c0-.72.178-1.37.533-1.954a3.63 3.63 0 0 1 1.492-1.359c.637-.323 1.347-.484 2.128-.484M127.217 86.122v1.11h-3.334v1.934h3.192v1.11h-3.192v2.09h3.407v1.112h-4.827v-7.356zM129.865 86.122l4.372 5.135v-5.135h1.39v7.356h-1.222l-4.396-5.218v5.218h-1.391v-7.356zM141.997 86.122v1.11h-3.333v1.934h3.191v1.11h-3.19v2.09h3.407v1.112h-4.829v-7.356zM145.727 89.26c.37 0 .664-.093.877-.278.212-.187.318-.441.318-.764 0-.337-.106-.59-.315-.756-.212-.167-.512-.25-.902-.25h-.883v2.048h.905zm.32-3.138c.693 0 1.255.192 1.693.575.433.382.652.88.652 1.495 0 .418-.11.78-.325 1.092-.215.31-.536.556-.961.735.235.126.444.299.627.516.182.218.409.584.68 1.1.448.893.782 1.507.999 1.844h-1.585a9.243 9.243 0 0 1-.442-.775c-.407-.783-.705-1.31-.893-1.583-.191-.271-.373-.465-.55-.578a1.085 1.085 0 0 0-.606-.171h-.514v3.107h-1.423v-7.357h2.649zM152.219 90.608h2.376l-1.243-2.912-1.133 2.912zm1.854-4.486l3.25 7.356h-1.501l-.765-1.79h-3.271l-.71 1.79h-1.49l3.033-7.356h1.454zM159.607 86.122v6.245h3.569v1.11h-4.99v-7.355zM171.009 86.027c.418 0 .827.048 1.227.142a6.17 6.17 0 0 1 1.294.484v1.338a6.188 6.188 0 0 0-1.254-.564 4.19 4.19 0 0 0-1.205-.172c-.522 0-.996.107-1.416.323-.421.216-.75.52-.982.914a2.508 2.508 0 0 0-.351 1.31c0 .493.116.932.348 1.323.233.388.559.69.98.902.422.213.894.32 1.42.32.406 0 .79-.059 1.158-.174.366-.117.828-.326 1.386-.627v1.336c-.477.25-.916.427-1.316.533a5.548 5.548 0 0 1-1.4.158c-.776 0-1.47-.154-2.08-.463a3.485 3.485 0 0 1-1.442-1.336 3.642 3.642 0 0 1-.522-1.908c0-.74.179-1.406.538-1.996a3.636 3.636 0 0 1 1.485-1.364c.63-.319 1.342-.479 2.132-.479M176.045 89.803c0 .488.111.927.333 1.316.221.39.528.693.925.907.393.214.84.32 1.339.32.755 0 1.376-.236 1.863-.71.484-.475.728-1.085.728-1.833 0-.488-.111-.928-.329-1.318a2.292 2.292 0 0 0-.926-.91 2.82 2.82 0 0 0-1.346-.32c-.499 0-.948.108-1.347.323a2.267 2.267 0 0 0-.919.907 2.69 2.69 0 0 0-.321 1.318m2.597-3.775c.761 0 1.448.157 2.056.47a3.643 3.643 0 0 1 1.457 1.359c.361.592.541 1.24.541 1.946a3.65 3.65 0 0 1-.528 1.914 3.632 3.632 0 0 1-1.454 1.369c-.615.324-1.311.488-2.082.488a4.371 4.371 0 0 1-2.078-.496 3.637 3.637 0 0 1-1.977-3.275c0-.675.173-1.308.521-1.9a3.621 3.621 0 0 1 1.437-1.383c.612-.328 1.314-.492 2.107-.492M185.275 86.122l4.373 5.135v-5.135h1.39v7.356h-1.222l-4.397-5.218v5.218h-1.39v-7.356zM198.756 86.122v1.11h-2.609v6.246h-1.424v-6.246h-2.612v-1.11zM202.165 89.26c.372 0 .663-.093.876-.278.214-.187.32-.441.32-.764 0-.337-.106-.59-.317-.756-.21-.167-.51-.25-.9-.25h-.885v2.048h.906zm.32-3.138c.693 0 1.256.192 1.692.575.435.382.652.88.652 1.495 0 .418-.108.78-.323 1.092-.217.31-.537.556-.96.735.232.126.442.299.625.516.182.218.408.584.68 1.1.45.893.782 1.507 1 1.844h-1.585a8.704 8.704 0 0 1-.442-.775c-.407-.783-.707-1.31-.895-1.583-.19-.271-.373-.465-.548-.578a1.092 1.092 0 0 0-.606-.171h-.516v3.107h-1.42v-7.357h2.646zM208.658 90.608h2.374l-1.242-2.912-1.132 2.912zm1.854-4.486l3.25 7.356h-1.5l-.766-1.79h-3.27l-.71 1.79h-1.49l3.032-7.356h1.454zM218.171 86.027c.416 0 .826.048 1.227.142a6.17 6.17 0 0 1 1.294.484v1.338a6.152 6.152 0 0 0-1.256-.564 4.17 4.17 0 0 0-1.203-.172c-.523 0-.996.107-1.416.323-.421.216-.75.52-.982.914a2.509 2.509 0 0 0-.352 1.31c0 .493.118.932.349 1.323.233.388.559.69.98.902.421.213.895.32 1.421.32.404 0 .79-.059 1.157-.174.366-.117.828-.326 1.386-.627v1.336c-.477.25-.916.427-1.317.533a5.529 5.529 0 0 1-1.399.158c-.777 0-1.47-.154-2.079-.463a3.468 3.468 0 0 1-1.441-1.336 3.635 3.635 0 0 1-.524-1.908c0-.74.179-1.406.54-1.996a3.612 3.612 0 0 1 1.483-1.364c.631-.319 1.341-.479 2.132-.479M228.232 86.122v1.11h-2.61v6.246h-1.423v-6.246h-2.612v-1.11z"/><mask id="f" fill="#fff"><use xlink:href="#e"/></mask><path fill="#51813B" d="M229.344 93.478h1.421v-7.356h-1.421zM233.667 86.122l4.37 5.135v-5.135h1.391v7.356h-1.222l-4.396-5.218v5.218h-1.39v-7.356zM244.904 86.027c.904 0 1.804.202 2.696.605v1.301c-.892-.453-1.769-.678-2.634-.678-.537 0-1.014.106-1.432.32a2.313 2.313 0 0 0-.972.925 2.663 2.663 0 0 0-.345 1.344c0 .752.251 1.357.75 1.815.501.458 1.16.687 1.98.687.224 0 .437-.019.644-.058a4.34 4.34 0 0 0 .734-.22v-1.223h-1.217v-1.11h2.64v3.032c-.364.253-.797.45-1.304.592a5.808 5.808 0 0 1-1.582.214c-.777 0-1.479-.16-2.109-.48a3.585 3.585 0 0 1-1.475-1.342 3.614 3.614 0 0 1-.529-1.927c0-.72.177-1.37.534-1.954a3.629 3.629 0 0 1 1.49-1.359c.638-.323 1.348-.484 2.131-.484M252.243 86.122h1.054v6.398h3.312v.958h-4.366zM257.584 86.122h1.054v6.398h3.312v.958h-4.366zM269.263 91.772v1.158c-.772.421-1.663.632-2.674.632-.822 0-1.518-.165-2.091-.494a3.642 3.642 0 0 1-1.36-1.365 3.691 3.691 0 0 1-.498-1.879c0-1.072.38-1.972 1.145-2.7.763-.732 1.704-1.097 2.824-1.097.772 0 1.63.202 2.576.605v1.132c-.861-.49-1.702-.737-2.523-.737-.842 0-1.542.266-2.098.798-.558.532-.835 1.198-.835 2 0 .806.274 1.47.822 1.99.548.52 1.247.778 2.1.778.892 0 1.763-.274 2.612-.82M270.978 92.305c.178 0 .33.061.457.183.127.124.19.273.19.454a.583.583 0 0 1-.187.44.635.635 0 0 1-.46.18.625.625 0 0 1-.638-.62c0-.18.062-.33.184-.453a.62.62 0 0 1 .454-.184" mask="url(#f)"/></g></svg>