<svg xmlns="http://www.w3.org/2000/svg" width="272" height="107"><g fill="none" fill-rule="evenodd"><path fill="#D1D2D3" d="M79.225 43.766c-.181.1-.358.16-.537.232v24.06c-8.285 4.785-16.57 9.567-24.854 14.35-8.285-4.783-16.57-9.565-24.854-14.35V43.886c-.096-.045-.192-.088-.29-.14L13.004 35.13l-6.804-3.736c-.07 1.569.039 3.17.039 4.622v40.563c0 2.804 1.522 5.493 3.957 6.897 7.06 4.077 14.122 8.155 21.182 12.23l13.947 8.053c2.556 1.476 5.438 3.676 8.509 3.676 3.069 0 5.953-2.2 8.513-3.676L75.6 96.104c7.292-4.208 14.583-8.418 21.875-12.628 1.888-1.09 3.008-2.573 3.524-4.18l.044-.123c.012-.04.02-.078.03-.116a8.516 8.516 0 0 0 .357-2.478V36.016c0-1.44.107-3.027.04-4.584l-6.805 3.773-15.44 8.56z"/><path fill="#D1D2D3" d="M32.92 36.598c.147.08.283.164.412.252l20.502-11.836 20.983 12.114c.125-.087.234-.181.376-.259l15.853-8.791 6.88-3.815c-1.541-1.14-3.378-2.005-4.931-2.903l-13.257-7.655L57.866 1.077a8.086 8.086 0 0 0-8.064 0C42.74 5.155 35.68 9.232 28.618 13.308L14.673 21.36c-1.45.837-3.141 1.652-4.616 2.684l6.919 3.799 15.945 8.755"/><path fill="#FEFEFE" d="M28.691 43.744c.097.053.193.096.29.141 4.453 2.086 8.312-4.323 4.351-7.035a4.955 4.955 0 0 0-.412-.252l-15.945-8.756-6.918-3.799-3.767-2.068c-4.717-2.59-8.949 4.555-4.229 7.147l4.137 2.272 6.805 3.736 15.688 8.614M102.088 21.955l-4.161 2.308-6.882 3.815-15.853 8.79c-.141.08-.25.173-.375.26-3.684 2.558-.263 8.508 3.871 6.87.178-.07.356-.132.537-.232l15.44-8.56 6.805-3.774 4.649-2.578c4.497-2.494.473-9.396-4.031-6.899"/><path fill="#65B1B1" d="M54.042 50.29l12.994-6.279-12.994-7.502L41.05 44.01l12.992 6.28M38.964 62.625l13.081 7.553v-16.43l-13.081-6.322v15.199zM56.04 70.178l13.081-7.553v-15.2c-4.36 2.109-8.72 4.216-13.082 6.324v16.429z"/><path fill="#939597" d="M164.698 72.699c-1.147.434-2.129.791-2.944 1.07-.817.281-1.6.535-2.352.765-.75.229-1.84.523-3.267.88-2.42.56-4.837.988-7.245 1.28a63.19 63.19 0 0 1-7.626.44c-5.377 0-10.346-.98-14.908-2.943-4.562-1.963-8.212-5.009-10.95-9.137-2.742-4.128-4.11-9.199-4.11-15.214 0-3.873.705-7.677 2.121-11.411 1.413-3.733 3.574-6.721 6.48-8.963 2.394-1.86 4.822-3.281 7.281-4.263 2.46-.981 4.86-1.636 7.205-1.969 2.345-.33 4.932-.496 7.761-.496 4.663 0 8.511.35 11.544 1.05 3.031.703 6.36 1.626 9.977 2.773v12.538a44.005 44.005 0 0 0-7.607-3.517c-2.675-.942-6.014-1.415-10.015-1.415-4.614 0-8.302.874-11.067 2.618-2.765 1.746-4.688 3.831-5.773 6.25-1.083 2.422-1.624 4.767-1.624 7.034 0 2.676.624 5.141 1.874 7.397 1.248 2.255 3.135 4.065 5.658 5.428 2.523 1.364 5.566 2.046 9.135 2.046 2.04 0 4.205-.268 6.498-.804v-6.229h-7.187V47.241h21.141v25.458zM228.955 23.464l-20.754 28.708v24.273h-15.98V52.479l-21.14-29.015h16.59l12.157 16.667 12.195-16.667zM270.915 61.04c0 3.314-.849 6.18-2.543 8.6-1.694 2.423-4.058 4.276-7.09 5.564-3.033 1.287-6.513 1.93-10.436 1.93-1.095 0-2.44-.071-4.034-.211-1.592-.14-3.707-.528-6.345-1.166-2.637-.636-5.383-1.578-8.237-2.828V59.932c2.674 1.657 5.307 3.033 7.894 4.128 2.585 1.097 5.357 1.645 8.314 1.645 2.726 0 4.491-.453 5.294-1.358.802-.905 1.204-1.752 1.204-2.541 0-1.428-.687-2.633-2.063-3.614-1.377-.98-3.378-1.992-6.003-3.038-2.905-1.223-5.453-2.555-7.645-3.996a18.087 18.087 0 0 1-5.37-5.408c-1.39-2.165-2.084-4.727-2.084-7.684 0-2.854.702-5.434 2.102-7.74 1.401-2.306 3.542-4.147 6.423-5.523 2.88-1.377 6.396-2.065 10.55-2.065 2.957 0 5.688.286 8.2.86 2.51.572 4.58 1.217 6.212 1.93 1.631.715 2.753 1.275 3.364 1.682v12.424c-2.167-1.553-4.583-2.944-7.244-4.167-2.664-1.223-5.51-1.835-8.544-1.835-1.988 0-3.428.382-4.32 1.147-.892.764-1.338 1.708-1.338 2.828 0 1.046.446 1.95 1.338 2.715.892.765 2.485 1.695 4.778 2.79 4.077 1.91 7.34 3.633 9.786 5.16 2.446 1.53 4.364 3.295 5.753 5.295 1.39 2 2.084 4.493 2.084 7.474"/><path fill="#65B0B1" d="M123.466 84.445c.94 0 1.874.209 2.797.627v1.35c-.924-.47-1.836-.705-2.732-.705-.556 0-1.05.11-1.485.333a2.391 2.391 0 0 0-1.006.958 2.755 2.755 0 0 0-.359 1.395c0 .78.261 1.406.78 1.882.519.474 1.203.713 2.05.713.234 0 .457-.02.669-.061.213-.038.466-.115.761-.23v-1.266h-1.26V88.29h2.734v3.145a4.403 4.403 0 0 1-1.35.614 6.074 6.074 0 0 1-1.641.22c-.805 0-1.535-.164-2.187-.495a3.727 3.727 0 0 1-1.53-1.393 3.748 3.748 0 0 1-.548-2c0-.745.183-1.421.553-2.024a3.75 3.75 0 0 1 1.546-1.41c.66-.335 1.398-.502 2.209-.502M130.402 87.798c.387 0 .689-.097.91-.29.219-.192.33-.457.33-.791 0-.35-.109-.612-.327-.785-.219-.172-.531-.26-.935-.26h-.917v2.126h.939zm.334-3.254c.716 0 1.301.197 1.752.594.453.398.677.914.677 1.55 0 .435-.112.812-.335 1.133-.225.324-.556.578-.997.764.245.13.46.308.65.535.189.224.425.605.704 1.14.466.925.813 1.562 1.038 1.912h-1.643a8.874 8.874 0 0 1-.459-.802c-.423-.813-.732-1.36-.929-1.642-.196-.282-.386-.482-.567-.6a1.127 1.127 0 0 0-.629-.18h-.535v3.224h-1.475v-7.628h2.748zM136.084 88.36c0 .507.116.96.345 1.365.23.404.55.718.958.939a2.86 2.86 0 0 0 1.39.334c.782 0 1.426-.246 1.93-.738.504-.491.757-1.125.757-1.9 0-.506-.114-.961-.342-1.37a2.36 2.36 0 0 0-.96-.94 2.887 2.887 0 0 0-1.395-.333c-.519 0-.984.112-1.396.335a2.348 2.348 0 0 0-.953.939c-.223.403-.334.86-.334 1.369m2.693-3.915c.79 0 1.501.163 2.133.488.63.326 1.134.796 1.51 1.409.375.614.562 1.286.562 2.018a3.77 3.77 0 0 1-.549 1.984 3.755 3.755 0 0 1-1.507 1.42c-.639.337-1.36.506-2.159.506-.79 0-1.509-.17-2.155-.514a3.77 3.77 0 0 1-2.05-3.396c0-.7.18-1.356.54-1.971a3.75 3.75 0 0 1 1.491-1.434c.634-.34 1.36-.51 2.184-.51M144.867 84.543l1.9 4.707 1.998-4.707h1.246l2.01 4.723 1.894-4.723h1.507l-3.139 7.726h-.498l-2.403-5.657-2.413 5.657h-.48l-3.146-7.726zM159.972 84.543l1.846 2.55 1.868-2.55h1.752l-2.884 3.85v3.778h-1.475v-3.79l-2.898-3.838zM166.998 88.36c0 .507.115.96.345 1.365.23.404.55.718.958.939.41.223.872.334 1.39.334.782 0 1.425-.246 1.93-.738.504-.491.756-1.125.756-1.9 0-.506-.113-.961-.34-1.37a2.363 2.363 0 0 0-.963-.94 2.887 2.887 0 0 0-1.394-.333 2.88 2.88 0 0 0-1.395.335 2.345 2.345 0 0 0-.954.939 2.78 2.78 0 0 0-.333 1.369m2.692-3.915c.79 0 1.501.163 2.133.488a3.76 3.76 0 0 1 1.51 1.409c.375.614.562 1.286.562 2.018 0 .714-.182 1.376-.548 1.984a3.758 3.758 0 0 1-1.508 1.42c-.638.337-1.359.506-2.159.506-.79 0-1.509-.17-2.155-.514a3.783 3.783 0 0 1-1.51-1.412 3.761 3.761 0 0 1-.54-1.984c0-.7.18-1.356.54-1.971a3.754 3.754 0 0 1 1.491-1.434c.634-.34 1.361-.51 2.184-.51M176.696 84.543v4.44c0 .455.068.816.204 1.086.138.268.36.492.67.666.311.175.671.263 1.081.263.452 0 .835-.083 1.15-.25.315-.165.544-.39.691-.677.145-.286.22-.68.22-1.188v-4.34h1.473v4.532c0 1.027-.307 1.815-.924 2.367-.615.551-1.485.827-2.61.827-.705 0-1.318-.124-1.838-.376a2.674 2.674 0 0 1-1.187-1.09c-.274-.475-.409-1.033-.409-1.673v-4.587h1.48zM186.227 87.798c.385 0 .687-.097.909-.29.22-.192.329-.457.329-.791 0-.35-.11-.612-.327-.785-.22-.172-.53-.26-.933-.26h-.917v2.126h.939zm.332-3.254c.718 0 1.3.197 1.754.594.45.398.677.914.677 1.55 0 .435-.113.812-.335 1.133-.225.324-.558.578-.997.764.243.13.46.308.648.535.19.224.425.605.706 1.14.465.925.81 1.562 1.037 1.912h-1.644a9.395 9.395 0 0 1-.46-.802c-.42-.813-.731-1.36-.927-1.642-.197-.282-.386-.482-.568-.6a1.12 1.12 0 0 0-.627-.18h-.535v3.224h-1.475v-7.628h2.746zM196.334 84.445c.742 0 1.458.186 2.146.557v1.31c-.79-.477-1.49-.715-2.103-.715-.37 0-.66.07-.87.215a.67.67 0 0 0-.314.577c0 .287.195.553.583.798.11.07.531.276 1.263.61.625.296 1.078.624 1.355.984.275.36.415.793.415 1.3 0 .655-.237 1.184-.707 1.585-.473.403-1.083.604-1.834.604-.487 0-.907-.053-1.257-.161-.353-.107-.746-.291-1.183-.554v-1.452c.815.677 1.583 1.015 2.304 1.015.361 0 .651-.078.874-.235a.726.726 0 0 0 .333-.623c0-.353-.193-.64-.579-.862a28.232 28.232 0 0 0-1.239-.628c-.6-.273-1.05-.591-1.347-.956a1.949 1.949 0 0 1-.444-1.267c0-.64.238-1.152.714-1.532.478-.38 1.108-.57 1.89-.57M206.54 84.543v1.151h-2.709v6.477h-1.477v-6.477h-2.708v-1.15zM208.877 88.36c0 .507.113.96.343 1.365.23.404.55.718.958.939.41.223.874.334 1.39.334.784 0 1.426-.246 1.93-.738.504-.491.757-1.125.757-1.9 0-.506-.114-.961-.342-1.37a2.36 2.36 0 0 0-.96-.94 2.893 2.893 0 0 0-1.396-.333c-.516 0-.982.112-1.395.335a2.348 2.348 0 0 0-.953.939 2.79 2.79 0 0 0-.332 1.369m2.691-3.915c.79 0 1.501.163 2.133.488a3.77 3.77 0 0 1 1.51 1.409c.375.614.562 1.286.562 2.018 0 .714-.183 1.376-.549 1.984a3.755 3.755 0 0 1-1.507 1.42c-.639.337-1.36.506-2.16.506-.789 0-1.509-.17-2.155-.514a3.772 3.772 0 0 1-1.508-1.412 3.744 3.744 0 0 1-.54-1.984c0-.7.177-1.356.54-1.971a3.732 3.732 0 0 1 1.49-1.434c.633-.34 1.362-.51 2.184-.51M219.904 87.798c.386 0 .69-.097.91-.29.22-.192.33-.457.33-.791 0-.35-.11-.612-.329-.785-.219-.172-.528-.26-.932-.26h-.918v2.126h.94zm.334-3.254c.716 0 1.302.197 1.752.594.451.398.678.914.678 1.55 0 .435-.113.812-.336 1.133-.225.324-.557.578-.997.764.243.13.461.308.65.535.19.224.423.605.704 1.14.467.925.812 1.562 1.037 1.912h-1.643a9.127 9.127 0 0 1-.459-.802c-.422-.813-.73-1.36-.927-1.642-.197-.282-.387-.482-.568-.6a1.127 1.127 0 0 0-.629-.18h-.535v3.224h-1.475v-7.628h2.748zM227.297 89.196h2.464l-1.289-3.021-1.175 3.02zm1.922-4.652l3.369 7.628h-1.556l-.791-1.857h-3.392l-.737 1.857h-1.545l3.145-7.628h1.507zM237.488 84.445c.938 0 1.871.209 2.796.627v1.35c-.924-.47-1.835-.705-2.731-.705-.555 0-1.052.11-1.486.333a2.4 2.4 0 0 0-1.007.958 2.764 2.764 0 0 0-.357 1.395c0 .78.26 1.406.778 1.882.52.474 1.203.713 2.05.713.233 0 .457-.02.67-.061.214-.038.466-.115.763-.23v-1.266h-1.262V88.29h2.733v3.145a4.407 4.407 0 0 1-1.35.614 6.087 6.087 0 0 1-1.642.22c-.804 0-1.532-.164-2.185-.495a3.72 3.72 0 0 1-2.08-3.392c0-.746.185-1.422.555-2.025a3.737 3.737 0 0 1 1.547-1.41c.66-.335 1.395-.502 2.208-.502M247.501 84.543v1.151h-3.458V87.7h3.31v1.152h-3.31v2.17h3.532v1.15h-5.007v-7.628z"/><g fill="#65B0B1"><path d="M251.5 84.543h1.092v6.634h3.434v.994H251.5zM257.017 84.543h1.093v6.634h3.433v.994h-4.526zM269.108 90.402v1.202c-.801.437-1.726.655-2.774.655-.852 0-1.575-.17-2.167-.513a3.78 3.78 0 0 1-1.412-1.414 3.861 3.861 0 0 1-.517-1.951c0-1.11.396-2.043 1.187-2.8.793-.758 1.77-1.136 2.93-1.136.8 0 1.69.209 2.67.627v1.175c-.891-.51-1.763-.764-2.615-.764-.873 0-1.6.274-2.177.827-.577.55-.865 1.24-.865 2.07 0 .839.284 1.527.85 2.066.57.539 1.296.808 2.18.808.927 0 1.828-.284 2.71-.852M270.861 90.954a.661.661 0 0 1 .673.66.611.611 0 0 1-.193.46.667.667 0 0 1-.48.184.646.646 0 0 1-.66-.644c0-.186.064-.342.192-.47a.642.642 0 0 1 .469-.19"/></g></g></svg>