<?xml version="1.0" encoding="UTF-8"?>
<svg width="272px" height="107px" viewBox="0 0 272 107" version="1.1" xmlns="http://www.w3.org/2000/svg" xmlns:xlink="http://www.w3.org/1999/xlink">
    <!-- Generator: Sketch 50.2 (55047) - http://www.bohemiancoding.com/sketch -->
    <title>gys-llc-logo</title>
    <desc>Created with Sketch.</desc>
    <defs></defs>
    <g id="gys-llc-logo" stroke="none" stroke-width="1" fill="none" fill-rule="evenodd">
        <g id="Group-51" transform="translate(0.000000, -0.565000)">
            <path d="M79.2248,44.3309 C79.0438,44.4309 78.8668,44.4919 78.6878,44.5629 L78.6878,68.6239 C70.4028,73.4079 62.1188,78.1899 53.8338,82.9739 C45.5488,78.1899 37.2648,73.4079 28.9798,68.6239 L28.9798,44.4499 C28.8838,44.4049 28.7878,44.3619 28.6908,44.3099 C23.4618,41.4389 18.2328,38.5669 13.0028,35.6949 C10.7348,34.4499 8.4668,33.2049 6.1988,31.9589 C6.1288,33.5279 6.2378,35.1299 6.2378,36.5809 L6.2378,51.8869 L6.2378,77.1439 C6.2378,79.9479 7.7598,82.6369 10.1948,84.0409 C17.2548,88.1179 24.3168,92.1959 31.3768,96.2709 C36.0268,98.9559 40.6738,101.6399 45.3238,104.3239 C47.8798,105.7999 50.7618,107.9999 53.8328,107.9999 C56.9018,107.9999 59.7858,105.7999 62.3458,104.3239 C66.7628,101.7719 71.1828,99.2209 75.5998,96.6689 C82.8918,92.4609 90.1828,88.2509 97.4748,84.0409 C99.3628,82.9509 100.4828,81.4679 100.9988,79.8609 C101.0138,79.8189 101.0298,79.7799 101.0428,79.7379 C101.0548,79.6989 101.0628,79.6599 101.0738,79.6219 C101.2998,78.8739 101.4298,78.0509 101.4298,77.1439 L101.4298,52.6829 L101.4298,36.5809 C101.4298,35.1419 101.5368,33.5539 101.4708,31.9969 L94.6648,35.7699 L79.2248,44.3309 Z" id="Fill-1" fill="#D1D2D3"></path>
            <path d="M32.9206,37.163 C33.0666,37.243 33.2026,37.327 33.3316,37.415 C40.1656,33.47 46.9996,29.524 53.8336,25.579 C60.8286,29.617 67.8226,33.655 74.8166,37.693 C74.9416,37.606 75.0506,37.512 75.1926,37.434 C80.4766,34.504 85.7606,31.574 91.0456,28.643 C93.3386,27.371 95.6326,26.1 97.9266,24.828 C96.3846,23.688 94.5476,22.823 92.9946,21.925 C88.5766,19.374 84.1576,16.822 79.7376,14.27 C72.4476,10.062 65.1576,5.852 57.8656,1.642 C55.3766,0.206 52.2916,0.206 49.8016,1.642 C42.7396,5.72 35.6796,9.797 28.6176,13.873 C23.9706,16.557 19.3206,19.241 14.6726,21.925 C13.2226,22.762 11.5316,23.577 10.0566,24.609 C12.3626,25.875 14.6696,27.142 16.9756,28.408 C22.2906,31.326 27.6056,34.244 32.9206,37.163" id="Fill-3" fill="#D1D2D3"></path>
            <path d="M28.6911,44.3094 C28.7881,44.3624 28.8841,44.4054 28.9801,44.4504 C33.4341,46.5364 37.2931,40.1274 33.3321,37.4154 C33.2031,37.3274 33.0661,37.2434 32.9201,37.1634 C27.6051,34.2444 22.2901,31.3264 16.9751,28.4074 C14.6691,27.1414 12.3631,25.8754 10.0571,24.6084 C8.8011,23.9194 7.5451,23.2304 6.2901,22.5404 C1.5731,19.9494 -2.6589,27.0954 2.0611,29.6874 C3.4401,30.4444 4.8191,31.2024 6.1981,31.9594 C8.4661,33.2044 10.7341,34.4504 13.0031,35.6954 C18.2331,38.5664 23.4621,41.4384 28.6911,44.3094" id="Fill-5" fill="#FEFEFE"></path>
            <path d="M102.088,22.5204 C100.701,23.2894 99.314,24.0584 97.927,24.8284 C95.633,26.0994 93.339,27.3714 91.045,28.6434 C85.761,31.5734 80.476,34.5034 75.192,37.4334 C75.051,37.5124 74.942,37.6064 74.817,37.6934 C71.133,40.2514 74.554,46.2014 78.688,44.5624 C78.866,44.4924 79.044,44.4314 79.225,44.3314 L94.665,35.7704 L101.47,31.9974 L106.119,29.4194 C110.616,26.9254 106.592,20.0234 102.088,22.5204" id="Fill-7" fill="#FEFEFE"></path>
            <path d="M54.0417,50.8553 C58.3737,48.7623 62.7047,46.6683 67.0357,44.5763 L54.0417,37.0743 L41.0497,44.5753 C45.3807,46.6683 49.7117,48.7613 54.0417,50.8553" id="Fill-9" fill="#65B1B1"></path>
            <path d="M38.964,63.1898 L52.045,70.7428 L52.045,54.3138 C47.685,52.2058 43.324,50.0988 38.964,47.9908 L38.964,63.1898 Z" id="Fill-11" fill="#65B1B1"></path>
            <path d="M56.0392,70.7426 L69.1212,63.1896 L69.1212,47.9906 C64.7602,50.0986 60.4002,52.2056 56.0392,54.3136 L56.0392,70.7426 Z" id="Fill-13" fill="#65B1B1"></path>
            <path d="M164.6984,73.264 C163.5514,73.698 162.5694,74.055 161.7544,74.334 C160.9374,74.615 160.1544,74.869 159.4024,75.099 C158.6514,75.328 157.5614,75.622 156.1354,75.979 C153.7144,76.539 151.2984,76.967 148.8904,77.259 C146.4814,77.552 143.9404,77.699 141.2644,77.699 C135.8874,77.699 130.9184,76.719 126.3564,74.756 C121.7944,72.793 118.1444,69.747 115.4054,65.619 C112.6644,61.491 111.2954,56.42 111.2954,50.405 C111.2954,46.532 112.0014,42.728 113.4174,38.994 C114.8304,35.261 116.9914,32.273 119.8964,30.031 C122.2914,28.171 124.7194,26.75 127.1784,25.768 C129.6374,24.787 132.0384,24.132 134.3834,23.799 C136.7284,23.469 139.3154,23.303 142.1444,23.303 C146.8074,23.303 150.6554,23.653 153.6884,24.353 C156.7194,25.056 160.0474,25.979 163.6654,27.126 L163.6654,39.664 C161.2694,38.263 158.7344,37.09 156.0584,36.147 C153.3834,35.205 150.0444,34.732 146.0434,34.732 C141.4294,34.732 137.7414,35.606 134.9764,37.35 C132.2114,39.096 130.2884,41.181 129.2034,43.6 C128.1204,46.022 127.5794,48.367 127.5794,50.634 C127.5794,53.31 128.2034,55.775 129.4534,58.031 C130.7014,60.286 132.5884,62.096 135.1114,63.459 C137.6344,64.823 140.6774,65.505 144.2464,65.505 C146.2854,65.505 148.4514,65.237 150.7444,64.701 L150.7444,58.472 L143.5574,58.472 L143.5574,47.806 L164.6984,47.806 L164.6984,73.264 Z" id="Fill-15" fill="#939597"></path>
            <polygon id="Fill-17" fill="#939597" points="228.9552 24.0287 208.2012 52.7367 208.2012 77.0097 192.2212 77.0097 192.2212 53.0437 171.0812 24.0287 187.6712 24.0287 199.8282 40.6957 212.0232 24.0287"></polygon>
            <path d="M270.9152,61.6058 C270.9152,64.9188 270.0662,67.7858 268.3722,70.2058 C266.6782,72.6278 264.3142,74.4808 261.2822,75.7688 C258.2492,77.0558 254.7692,77.6988 250.8462,77.6988 C249.7512,77.6988 248.4052,77.6278 246.8122,77.4878 C245.2202,77.3488 243.1052,76.9598 240.4672,76.3218 C237.8302,75.6858 235.0842,74.7438 232.2302,73.4938 L232.2302,60.4968 C234.9042,62.1538 237.5372,63.5298 240.1242,64.6248 C242.7092,65.7218 245.4812,66.2698 248.4382,66.2698 C251.1642,66.2698 252.9292,65.8168 253.7322,64.9118 C254.5342,64.0068 254.9362,63.1598 254.9362,62.3708 C254.9362,60.9428 254.2492,59.7378 252.8732,58.7568 C251.4962,57.7768 249.4952,56.7648 246.8702,55.7188 C243.9652,54.4958 241.4172,53.1638 239.2252,51.7228 C237.0332,50.2848 235.2432,48.4808 233.8542,46.3148 C232.4652,44.1498 231.7712,41.5878 231.7712,38.6308 C231.7712,35.7768 232.4732,33.1968 233.8732,30.8908 C235.2742,28.5848 237.4152,26.7438 240.2962,25.3678 C243.1762,23.9908 246.6922,23.3028 250.8462,23.3028 C253.8032,23.3028 256.5342,23.5888 259.0452,24.1628 C261.5562,24.7348 263.6262,25.3798 265.2582,26.0928 C266.8892,26.8078 268.0112,27.3678 268.6222,27.7748 L268.6222,40.1988 C266.4552,38.6458 264.0392,37.2548 261.3782,36.0318 C258.7142,34.8088 255.8672,34.1968 252.8342,34.1968 C250.8462,34.1968 249.4062,34.5788 248.5142,35.3438 C247.6222,36.1078 247.1762,37.0518 247.1762,38.1718 C247.1762,39.2178 247.6222,40.1228 248.5142,40.8868 C249.4062,41.6518 250.9992,42.5818 253.2922,43.6768 C257.3692,45.5878 260.6322,47.3098 263.0782,48.8378 C265.5242,50.3678 267.4422,52.1318 268.8312,54.1318 C270.2202,56.1328 270.9152,58.6248 270.9152,61.6058" id="Fill-19" fill="#939597"></path>
            <path d="M123.4665,85.0096 C124.4055,85.0096 125.3395,85.2186 126.2625,85.6366 L126.2625,86.9866 C125.3395,86.5166 124.4275,86.2816 123.5315,86.2816 C122.9755,86.2816 122.4805,86.3916 122.0465,86.6146 C121.6145,86.8366 121.2775,87.1566 121.0405,87.5726 C120.8015,87.9896 120.6815,88.4546 120.6815,88.9676 C120.6815,89.7486 120.9425,90.3736 121.4605,90.8496 C121.9795,91.3236 122.6635,91.5626 123.5105,91.5626 C123.7445,91.5626 123.9675,91.5426 124.1795,91.5016 C124.3935,91.4636 124.6465,91.3866 124.9415,91.2726 L124.9415,90.0056 L123.6805,90.0056 L123.6805,88.8546 L126.4155,88.8546 L126.4155,91.9996 C126.0415,92.2616 125.5905,92.4666 125.0645,92.6136 C124.5385,92.7606 123.9905,92.8346 123.4235,92.8346 C122.6195,92.8346 121.8895,92.6696 121.2375,92.3386 C120.5835,92.0066 120.0725,91.5426 119.7075,90.9456 C119.3415,90.3486 119.1585,89.6826 119.1585,88.9466 C119.1585,88.2006 119.3425,87.5246 119.7125,86.9216 C120.0825,86.3156 120.5975,85.8456 121.2585,85.5116 C121.9185,85.1766 122.6555,85.0096 123.4665,85.0096" id="Fill-21" fill="#65B0B1"></path>
            <path d="M130.402,88.3627 C130.789,88.3627 131.091,88.2657 131.312,88.0727 C131.531,87.8807 131.642,87.6157 131.642,87.2817 C131.642,86.9317 131.533,86.6697 131.315,86.4967 C131.096,86.3247 130.784,86.2377 130.38,86.2377 L129.463,86.2377 L129.463,88.3627 L130.402,88.3627 Z M130.736,85.1087 C131.452,85.1087 132.037,85.3057 132.488,85.7027 C132.941,86.1007 133.165,86.6167 133.165,87.2537 C133.165,87.6877 133.053,88.0647 132.83,88.3857 C132.605,88.7097 132.274,88.9637 131.833,89.1497 C132.078,89.2797 132.293,89.4577 132.483,89.6847 C132.672,89.9087 132.908,90.2897 133.187,90.8247 C133.653,91.7497 134,92.3867 134.225,92.7367 L132.582,92.7367 C132.468,92.5697 132.315,92.3007 132.123,91.9347 C131.7,91.1217 131.391,90.5747 131.194,90.2927 C130.998,90.0107 130.808,89.8107 130.627,89.6927 C130.444,89.5737 130.235,89.5137 129.998,89.5137 L129.463,89.5137 L129.463,92.7367 L127.988,92.7367 L127.988,85.1087 L130.736,85.1087 Z" id="Fill-23" fill="#65B0B1"></path>
            <path d="M136.0841,88.9247 C136.0841,89.4317 136.2001,89.8857 136.4291,90.2897 C136.6581,90.6937 136.9791,91.0077 137.3871,91.2287 C137.7981,91.4517 138.2591,91.5627 138.7771,91.5627 C139.5591,91.5627 140.2031,91.3167 140.7071,90.8247 C141.2111,90.3337 141.4641,89.6997 141.4641,88.9247 C141.4641,88.4187 141.3501,87.9637 141.1221,87.5557 C140.8951,87.1507 140.5741,86.8367 140.1611,86.6147 C139.7481,86.3917 139.2831,86.2817 138.7671,86.2817 C138.2481,86.2817 137.7831,86.3937 137.3711,86.6167 C136.9581,86.8417 136.6401,87.1547 136.4181,87.5557 C136.1951,87.9587 136.0841,88.4157 136.0841,88.9247 M138.7771,85.0097 C139.5661,85.0097 140.2781,85.1727 140.9101,85.4977 C141.5401,85.8237 142.0441,86.2937 142.4191,86.9067 C142.7951,87.5207 142.9821,88.1927 142.9821,88.9247 C142.9821,89.6387 142.8001,90.3007 142.4331,90.9087 C142.0671,91.5197 141.5651,91.9937 140.9261,92.3287 C140.2871,92.6657 139.5661,92.8347 138.7671,92.8347 C137.9761,92.8347 137.2581,92.6647 136.6121,92.3207 C135.9661,91.9797 135.4611,91.5077 135.1011,90.9087 C134.7411,90.3117 134.5621,89.6497 134.5621,88.9247 C134.5621,88.2257 134.7411,87.5687 135.1011,86.9537 C135.4611,86.3377 135.9591,85.8607 136.5931,85.5197 C137.2271,85.1797 137.9531,85.0097 138.7771,85.0097" id="Fill-25" fill="#65B0B1"></path>
            <polygon id="Fill-27" fill="#65B0B1" points="144.8673 85.1083 146.7673 89.8153 148.7653 85.1083 150.0113 85.1083 152.0203 89.8313 153.9153 85.1083 155.4223 85.1083 152.2833 92.8343 151.7853 92.8343 149.3823 87.1773 146.9693 92.8343 146.4883 92.8343 143.3433 85.1083"></polygon>
            <polygon id="Fill-29" fill="#65B0B1" points="159.9718 85.1083 161.8178 87.6573 163.6858 85.1083 165.4378 85.1083 162.5538 88.9573 162.5538 92.7363 161.0788 92.7363 161.0788 88.9463 158.1808 85.1083"></polygon>
            <path d="M166.9982,88.9247 C166.9982,89.4317 167.1132,89.8857 167.3432,90.2897 C167.5722,90.6937 167.8922,91.0077 168.3012,91.2287 C168.7112,91.4517 169.1732,91.5627 169.6902,91.5627 C170.4732,91.5627 171.1162,91.3167 171.6212,90.8247 C172.1252,90.3337 172.3772,89.6997 172.3772,88.9247 C172.3772,88.4187 172.2642,87.9637 172.0362,87.5557 C171.8082,87.1507 171.4882,86.8367 171.0742,86.6147 C170.6612,86.3917 170.1962,86.2817 169.6802,86.2817 C169.1622,86.2817 168.6962,86.3937 168.2852,86.6167 C167.8712,86.8417 167.5532,87.1547 167.3312,87.5557 C167.1082,87.9587 166.9982,88.4157 166.9982,88.9247 M169.6902,85.0097 C170.4802,85.0097 171.1912,85.1727 171.8232,85.4977 C172.4542,85.8237 172.9582,86.2937 173.3322,86.9067 C173.7082,87.5207 173.8952,88.1927 173.8952,88.9247 C173.8952,89.6387 173.7132,90.3007 173.3472,90.9087 C172.9812,91.5197 172.4782,91.9937 171.8392,92.3287 C171.2012,92.6657 170.4802,92.8347 169.6802,92.8347 C168.8892,92.8347 168.1712,92.6647 167.5252,92.3207 C166.8792,91.9797 166.3752,91.5077 166.0152,90.9087 C165.6542,90.3117 165.4752,89.6497 165.4752,88.9247 C165.4752,88.2257 165.6542,87.5687 166.0152,86.9537 C166.3752,86.3377 166.8732,85.8607 167.5062,85.5197 C168.1402,85.1797 168.8672,85.0097 169.6902,85.0097" id="Fill-31" fill="#65B0B1"></path>
            <path d="M176.6964,85.1083 L176.6964,89.5473 C176.6964,90.0033 176.7644,90.3643 176.9004,90.6343 C177.0384,90.9023 177.2604,91.1263 177.5704,91.3003 C177.8814,91.4753 178.2414,91.5633 178.6514,91.5633 C179.1034,91.5633 179.4864,91.4803 179.8004,91.3133 C180.1164,91.1483 180.3454,90.9233 180.4924,90.6363 C180.6374,90.3503 180.7114,89.9563 180.7114,89.4483 L180.7114,85.1083 L182.1854,85.1083 L182.1854,89.6403 C182.1854,90.6673 181.8784,91.4553 181.2614,92.0073 C180.6464,92.5583 179.7764,92.8343 178.6514,92.8343 C177.9464,92.8343 177.3334,92.7103 176.8134,92.4583 C176.2954,92.2073 175.8984,91.8433 175.6264,91.3683 C175.3524,90.8933 175.2174,90.3353 175.2174,89.6953 L175.2174,85.1083 L176.6964,85.1083 Z" id="Fill-33" fill="#65B0B1"></path>
            <path d="M186.2267,88.3627 C186.6117,88.3627 186.9137,88.2657 187.1357,88.0727 C187.3557,87.8807 187.4647,87.6157 187.4647,87.2817 C187.4647,86.9317 187.3557,86.6697 187.1377,86.4967 C186.9187,86.3247 186.6087,86.2377 186.2047,86.2377 L185.2877,86.2377 L185.2877,88.3627 L186.2267,88.3627 Z M186.5587,85.1087 C187.2767,85.1087 187.8597,85.3057 188.3127,85.7027 C188.7637,86.1007 188.9897,86.6167 188.9897,87.2537 C188.9897,87.6877 188.8767,88.0647 188.6547,88.3857 C188.4297,88.7097 188.0967,88.9637 187.6577,89.1497 C187.9007,89.2797 188.1177,89.4577 188.3057,89.6847 C188.4967,89.9087 188.7307,90.2897 189.0117,90.8247 C189.4767,91.7497 189.8227,92.3867 190.0487,92.7367 L188.4047,92.7367 C188.2917,92.5697 188.1387,92.3007 187.9457,91.9347 C187.5247,91.1217 187.2137,90.5747 187.0177,90.2927 C186.8207,90.0107 186.6317,89.8107 186.4497,89.6927 C186.2687,89.5737 186.0577,89.5137 185.8227,89.5137 L185.2877,89.5137 L185.2877,92.7367 L183.8127,92.7367 L183.8127,85.1087 L186.5587,85.1087 Z" id="Fill-35" fill="#65B0B1"></path>
            <path d="M196.3341,85.0096 C197.0761,85.0096 197.7921,85.1956 198.4801,85.5666 L198.4801,86.8776 C197.6891,86.3996 196.9891,86.1616 196.3771,86.1616 C196.0061,86.1616 195.7161,86.2326 195.5071,86.3766 C195.2981,86.5216 195.1931,86.7136 195.1931,86.9536 C195.1931,87.2406 195.3881,87.5066 195.7761,87.7516 C195.8861,87.8226 196.3071,88.0276 197.0391,88.3626 C197.6641,88.6576 198.1171,88.9856 198.3941,89.3456 C198.6691,89.7056 198.8091,90.1386 198.8091,90.6456 C198.8091,91.3006 198.5721,91.8296 198.1021,92.2306 C197.6291,92.6336 197.0191,92.8346 196.2681,92.8346 C195.7811,92.8346 195.3611,92.7816 195.0111,92.6736 C194.6581,92.5666 194.2651,92.3826 193.8281,92.1196 L193.8281,90.6676 C194.6431,91.3446 195.4111,91.6826 196.1321,91.6826 C196.4931,91.6826 196.7831,91.6046 197.0061,91.4476 C197.2281,91.2916 197.3391,91.0836 197.3391,90.8246 C197.3391,90.4716 197.1461,90.1846 196.7601,89.9626 C196.4391,89.7876 196.0261,89.5776 195.5211,89.3346 C194.9201,89.0616 194.4711,88.7436 194.1741,88.3786 C193.8781,88.0146 193.7301,87.5926 193.7301,87.1116 C193.7301,86.4716 193.9681,85.9596 194.4441,85.5796 C194.9221,85.1996 195.5521,85.0096 196.3341,85.0096" id="Fill-37" fill="#65B0B1"></path>
            <polygon id="Fill-39" fill="#65B0B1" points="206.5392 85.1083 206.5392 86.2593 203.8312 86.2593 203.8312 92.7363 202.3542 92.7363 202.3542 86.2593 199.6462 86.2593 199.6462 85.1083"></polygon>
            <path d="M208.8771,88.9247 C208.8771,89.4317 208.9901,89.8857 209.2201,90.2897 C209.4491,90.6937 209.7691,91.0077 210.1781,91.2287 C210.5881,91.4517 211.0521,91.5627 211.5681,91.5627 C212.3521,91.5627 212.9941,91.3167 213.4981,90.8247 C214.0021,90.3337 214.2551,89.6997 214.2551,88.9247 C214.2551,88.4187 214.1411,87.9637 213.9131,87.5557 C213.6861,87.1507 213.3651,86.8367 212.9521,86.6147 C212.5381,86.3917 212.0731,86.2817 211.5571,86.2817 C211.0411,86.2817 210.5751,86.3937 210.1621,86.6167 C209.7491,86.8417 209.4311,87.1547 209.2091,87.5557 C208.9871,87.9587 208.8771,88.4157 208.8771,88.9247 M211.5681,85.0097 C212.3571,85.0097 213.0691,85.1727 213.7011,85.4977 C214.3331,85.8237 214.8351,86.2937 215.2111,86.9067 C215.5861,87.5207 215.7731,88.1927 215.7731,88.9247 C215.7731,89.6387 215.5901,90.3007 215.2241,90.9087 C214.8581,91.5197 214.3561,91.9937 213.7171,92.3287 C213.0781,92.6657 212.3571,92.8347 211.5571,92.8347 C210.7681,92.8347 210.0481,92.6647 209.4021,92.3207 C208.7571,91.9797 208.2521,91.5077 207.8941,90.9087 C207.5311,90.3117 207.3531,89.6497 207.3531,88.9247 C207.3531,88.2257 207.5311,87.5687 207.8941,86.9537 C208.2521,86.3377 208.7501,85.8607 209.3841,85.5197 C210.0171,85.1797 210.7461,85.0097 211.5681,85.0097" id="Fill-41" fill="#65B0B1"></path>
            <path d="M219.9044,88.3627 C220.2904,88.3627 220.5934,88.2657 220.8144,88.0727 C221.0344,87.8807 221.1434,87.6157 221.1434,87.2817 C221.1434,86.9317 221.0344,86.6697 220.8154,86.4967 C220.5964,86.3247 220.2874,86.2377 219.8834,86.2377 L218.9654,86.2377 L218.9654,88.3627 L219.9044,88.3627 Z M220.2384,85.1087 C220.9544,85.1087 221.5404,85.3057 221.9904,85.7027 C222.4414,86.1007 222.6684,86.6167 222.6684,87.2537 C222.6684,87.6877 222.5554,88.0647 222.3324,88.3857 C222.1074,88.7097 221.7754,88.9637 221.3354,89.1497 C221.5784,89.2797 221.7964,89.4577 221.9854,89.6847 C222.1754,89.9087 222.4084,90.2897 222.6894,90.8247 C223.1564,91.7497 223.5014,92.3867 223.7264,92.7367 L222.0834,92.7367 C221.9694,92.5697 221.8174,92.3007 221.6244,91.9347 C221.2024,91.1217 220.8934,90.5747 220.6974,90.2927 C220.5004,90.0107 220.3104,89.8107 220.1294,89.6927 C219.9464,89.5737 219.7374,89.5137 219.5004,89.5137 L218.9654,89.5137 L218.9654,92.7367 L217.4904,92.7367 L217.4904,85.1087 L220.2384,85.1087 Z" id="Fill-43" fill="#65B0B1"></path>
            <path d="M227.297,89.7606 L229.761,89.7606 L228.472,86.7396 L227.297,89.7606 Z M229.219,85.1086 L232.588,92.7366 L231.032,92.7366 L230.241,90.8796 L226.849,90.8796 L226.112,92.7366 L224.567,92.7366 L227.712,85.1086 L229.219,85.1086 Z" id="Fill-45" fill="#65B0B1"></path>
            <path d="M237.4875,85.0096 C238.4255,85.0096 239.3595,85.2186 240.2835,85.6366 L240.2835,86.9866 C239.3595,86.5166 238.4485,86.2816 237.5525,86.2816 C236.9975,86.2816 236.5015,86.3916 236.0675,86.6146 C235.6345,86.8366 235.2995,87.1566 235.0605,87.5726 C234.8225,87.9896 234.7035,88.4546 234.7035,88.9676 C234.7035,89.7486 234.9635,90.3736 235.4805,90.8496 C236.0005,91.3236 236.6835,91.5626 237.5305,91.5626 C237.7645,91.5626 237.9885,91.5426 238.2005,91.5016 C238.4145,91.4636 238.6675,91.3866 238.9635,91.2726 L238.9635,90.0056 L237.7015,90.0056 L237.7015,88.8546 L240.4355,88.8546 L240.4355,91.9996 C240.0615,92.2616 239.6105,92.4666 239.0855,92.6136 C238.5585,92.7606 238.0105,92.8346 237.4435,92.8346 C236.6395,92.8346 235.9115,92.6696 235.2585,92.3386 C234.6035,92.0066 234.0935,91.5426 233.7285,90.9456 C233.3615,90.3486 233.1785,89.6826 233.1785,88.9466 C233.1785,88.2006 233.3635,87.5246 233.7335,86.9216 C234.1025,86.3156 234.6175,85.8456 235.2795,85.5116 C235.9395,85.1766 236.6755,85.0096 237.4875,85.0096" id="Fill-47" fill="#65B0B1"></path>
            <polygon id="Fill-49" fill="#65B0B1" points="247.5011 85.1083 247.5011 86.2593 244.0431 86.2593 244.0431 88.2643 247.3531 88.2643 247.3531 89.4163 244.0431 89.4163 244.0431 91.5853 247.5751 91.5853 247.5751 92.7363 242.5681 92.7363 242.5681 85.1083"></polygon>
        </g>
        <text id="-" font-family="GillSans-SemiBold, Gill Sans" font-size="9.5862" font-weight="500"></text>
        <g id="Group-60" transform="translate(251.000000, 84.435000)" fill="#65B0B1">
            <polygon id="Fill-52" points="0.5002 0.1083 1.5922 0.1083 1.5922 6.7423 5.0262 6.7423 5.0262 7.7363 0.5002 7.7363"></polygon>
            <polygon id="Fill-54" points="6.0168 0.1083 7.1098 0.1083 7.1098 6.7423 10.5428 6.7423 10.5428 7.7363 6.0168 7.7363"></polygon>
            <path d="M18.1076,5.9667 L18.1076,7.1687 C17.3066,7.6057 16.3816,7.8237 15.3336,7.8237 C14.4816,7.8237 13.7586,7.6537 13.1666,7.3107 C12.5716,6.9687 12.1016,6.4977 11.7546,5.8967 C11.4106,5.2957 11.2376,4.6457 11.2376,3.9457 C11.2376,2.8367 11.6336,1.9027 12.4246,1.1457 C13.2176,0.3877 14.1946,0.0097 15.3546,0.0097 C16.1556,0.0097 17.0456,0.2187 18.0246,0.6367 L18.0246,1.8117 C17.1336,1.3017 16.2616,1.0477 15.4096,1.0477 C14.5366,1.0477 13.8106,1.3217 13.2326,1.8747 C12.6556,2.4247 12.3676,3.1157 12.3676,3.9457 C12.3676,4.7837 12.6516,5.4717 13.2186,6.0107 C13.7876,6.5497 14.5136,6.8187 15.3986,6.8187 C16.3246,6.8187 17.2256,6.5347 18.1076,5.9667" id="Fill-56"></path>
            <path d="M19.8615,6.5194 C20.0485,6.5194 20.2065,6.5834 20.3375,6.7094 C20.4675,6.8374 20.5335,6.9934 20.5335,7.1794 C20.5335,7.3614 20.4695,7.5144 20.3405,7.6384 C20.2105,7.7624 20.0505,7.8234 19.8615,7.8234 C19.6765,7.8234 19.5195,7.7624 19.3925,7.6384 C19.2645,7.5144 19.2015,7.3614 19.2015,7.1794 C19.2015,6.9934 19.2645,6.8374 19.3925,6.7094 C19.5195,6.5834 19.6765,6.5194 19.8615,6.5194" id="Fill-58"></path>
        </g>
    </g>
</svg>